M48
; DRILL file {KiCad (6.0.5)} date Sun Jun 12 01:05:55 2022
; FORMAT={-:-/ absolute / inch / decimal}
; #@! TF.CreationDate,2022-06-12T01:05:55+10:00
; #@! TF.GenerationSoftware,Kicad,Pcbnew,(6.0.5)
; #@! TF.FileFunction,Plated,1,2,PTH
FMAT,2
INCH
; #@! TA.AperFunction,Plated,PTH,ViaDrill
T1C0.0157
; #@! TA.AperFunction,Plated,PTH,ComponentDrill
T2C0.0276
; #@! TA.AperFunction,Plated,PTH,ComponentDrill
T3C0.0295
; #@! TA.AperFunction,Plated,PTH,ComponentDrill
T4C0.0315
; #@! TA.AperFunction,Plated,PTH,ComponentDrill
T5C0.0354
; #@! TA.AperFunction,Plated,PTH,ComponentDrill
T6C0.0394
; #@! TA.AperFunction,Plated,PTH,ComponentDrill
T7C0.0433
%
G90
G05
T1
X1.095Y-2.0203
X1.6885Y-3.1855
X2.099Y-1.7646
X2.1604Y-2.1969
X2.2082Y-3.4356
X2.289Y-2.7032
X2.3016Y-2.274
X2.3402Y-2.4472
X2.354Y-2.8784
X2.4341Y-1.9326
X2.4889Y-1.7167
X2.6123Y-2.9301
X2.7276Y-2.0113
X2.728Y-1.7059
X2.9924Y-2.9021
X3.0657Y-3.5495
X3.2203Y-3.5379
X3.2219Y-2.2345
X3.2833Y-1.9839
X3.9283Y-2.4807
T2
X1.624Y-3.9354
X1.624Y-4.1354
X1.8038Y-4.3593
X2.0038Y-4.3593
X2.1835Y-4.3602
X2.3835Y-4.3602
X2.9947Y-3.5025
X2.9947Y-3.7025
X2.9955Y-3.8764
X2.9955Y-4.0764
X3.1398Y-3.5024
X3.1398Y-3.7024
X3.1398Y-3.8764
X3.1398Y-4.0764
X3.2776Y-3.5024
X3.2776Y-3.7024
X3.2776Y-3.8764
X3.2776Y-4.0764
X3.5811Y-2.1835
X3.5811Y-2.2735
X3.5811Y-2.3635
X3.5811Y-2.4535
X3.5811Y-2.5435
X3.5811Y-2.6335
X3.5811Y-2.7235
X3.5811Y-2.8135
X3.5811Y-2.9035
X3.5811Y-2.9935
X3.5811Y-3.0835
X3.5811Y-3.1735
X3.5811Y-3.2635
X3.5811Y-3.3535
X3.5811Y-3.4435
X3.5811Y-3.5335
X3.7811Y-2.1835
X3.7811Y-2.2735
X3.7811Y-2.3635
X3.7811Y-2.4535
X3.7811Y-2.5435
X3.7811Y-2.6335
X3.7811Y-2.7235
X3.7811Y-2.8135
X3.7811Y-2.9035
X3.7811Y-2.9935
X3.7811Y-3.0835
X3.7811Y-3.1735
X3.7811Y-3.2635
X3.7811Y-3.3535
X3.7811Y-3.4435
X3.7811Y-3.5335
X3.9075Y-2.1776
X3.9075Y-2.3776
X3.9075Y-2.5476
X3.9075Y-2.7476
X3.9075Y-2.8876
X3.9075Y-3.0876
X4.0142Y-3.1398
X4.0142Y-3.4398
X4.0142Y-3.6398
X4.0242Y-2.4598
X4.0242Y-2.7998
X4.2142Y-3.1398
X4.2142Y-3.4398
X4.2142Y-3.6398
X4.2242Y-2.4598
X4.2242Y-2.7998
X4.4669Y-1.98
X4.4685Y-4.1913
X4.4685Y-4.3913
X4.6358Y-4.1126
X4.6358Y-4.3126
X4.6457Y-4.4571
X4.6457Y-4.6571
X4.6669Y-1.98
T3
X3.6654Y-2.0079
X3.7154Y-2.0079
X3.7654Y-2.0079
X3.9854Y-2.0079
X4.0354Y-2.0079
X4.0854Y-2.0079
T4
X1.1112Y-4.5248
X1.1112Y-4.8248
X1.1498Y-1.4502
X1.1498Y-1.5502
X1.1498Y-1.6502
X1.1498Y-1.7502
X1.1498Y-1.8502
X1.1498Y-1.9502
X1.1498Y-2.0502
X1.1498Y-2.1502
X1.1498Y-2.2502
X1.1498Y-2.3502
X1.1498Y-2.4502
X1.1498Y-2.5502
X1.1498Y-2.6502
X1.1498Y-2.7502
X1.1498Y-2.8502
X1.1498Y-2.9502
X1.1498Y-3.0502
X1.1498Y-3.1502
X1.1498Y-3.2502
X1.1498Y-3.3502
X1.2112Y-4.5248
X1.2112Y-4.8248
X1.3091Y-1.3091
X1.3112Y-4.5248
X1.3112Y-4.8248
X1.4112Y-4.5248
X1.4112Y-4.8248
X1.5112Y-4.5248
X1.5112Y-4.8248
X1.6043Y-1.3091
X1.6112Y-4.5248
X1.6112Y-4.8248
X1.7112Y-4.5248
X1.7112Y-4.8248
X1.7498Y-1.4502
X1.7498Y-1.5502
X1.7498Y-1.6502
X1.7498Y-1.7502
X1.7498Y-1.8502
X1.7498Y-1.9502
X1.7498Y-2.0502
X1.7498Y-2.1502
X1.7498Y-2.2502
X1.7498Y-2.3502
X1.7498Y-2.4502
X1.7498Y-2.5502
X1.7498Y-2.6502
X1.7498Y-2.7502
X1.7498Y-2.8502
X1.7498Y-2.9502
X1.7498Y-3.0502
X1.7498Y-3.1502
X1.7498Y-3.2502
X1.7498Y-3.3502
X1.7844Y-3.7008
X1.8051Y-3.9146
X1.8051Y-4.2146
X1.8112Y-4.5248
X1.8112Y-4.8248
X1.8829Y-3.7008
X1.9051Y-3.9146
X1.9051Y-4.2146
X1.9112Y-4.5248
X1.9112Y-4.8248
X1.9439Y-1.4469
X1.9439Y-1.5469
X1.9439Y-1.6469
X1.9439Y-1.7469
X1.9439Y-1.8469
X1.9439Y-1.9469
X1.9439Y-2.0469
X1.9439Y-2.1469
X1.9439Y-2.2469
X1.9439Y-2.3469
X1.9439Y-2.4469
X1.9439Y-2.5469
X1.9439Y-2.6469
X1.9439Y-2.7469
X1.9439Y-2.8469
X1.9439Y-2.9469
X1.9492Y-3.1204
X1.9492Y-3.3172
X2.0051Y-3.9146
X2.0051Y-4.2146
X2.0112Y-4.5248
X2.0112Y-4.8248
X2.0644Y-3.7008
X2.0965Y-1.3091
X2.1051Y-3.9146
X2.1051Y-4.2146
X2.1112Y-4.5248
X2.1112Y-4.8248
X2.1358Y-3.1204
X2.1358Y-3.3172
X2.1629Y-3.7008
X2.2051Y-3.9146
X2.2051Y-4.2146
X2.2112Y-4.5248
X2.2112Y-4.8248
X2.3051Y-3.9146
X2.3051Y-4.2146
X2.3112Y-4.5248
X2.3112Y-4.8248
X2.3344Y-3.7008
X2.3642Y-3.1988
X2.3917Y-1.3091
X2.4051Y-3.9146
X2.4051Y-4.2146
X2.4112Y-4.5248
X2.4112Y-4.8248
X2.4329Y-3.7008
X2.5051Y-3.9146
X2.5051Y-4.2146
X2.5439Y-1.4469
X2.5439Y-1.5469
X2.5439Y-1.6469
X2.5439Y-1.7469
X2.5439Y-1.8469
X2.5439Y-1.9469
X2.5439Y-2.0469
X2.5439Y-2.1469
X2.5439Y-2.2469
X2.5439Y-2.3469
X2.5439Y-2.4469
X2.5439Y-2.5469
X2.5439Y-2.6469
X2.5439Y-2.7469
X2.5439Y-2.8469
X2.5439Y-2.9469
X2.5563Y-3.1988
X2.5591Y-4.5276
X2.5591Y-4.8228
X2.6044Y-3.7008
X2.6888Y-4.0453
X2.7029Y-3.7008
X2.7756Y-1.4502
X2.7756Y-1.5502
X2.7756Y-1.6502
X2.7756Y-1.7502
X2.7756Y-1.8502
X2.7756Y-1.9502
X2.7756Y-2.0502
X2.7756Y-2.1502
X2.7756Y-2.2502
X2.7756Y-2.3502
X2.7756Y-2.4502
X2.7756Y-2.5502
X2.7756Y-2.6502
X2.7756Y-2.7502
X2.7756Y-2.8502
X2.7756Y-2.9502
X2.7756Y-3.0502
X2.7756Y-3.1502
X2.7756Y-3.2502
X2.7756Y-3.3502
X2.7872Y-4.0453
X2.9331Y-1.3091
X3.2283Y-1.3091
X3.3756Y-1.4502
X3.3756Y-1.5502
X3.3756Y-1.6502
X3.3756Y-1.7502
X3.3756Y-1.8502
X3.3756Y-1.9502
X3.3756Y-2.0502
X3.3756Y-2.1502
X3.3756Y-2.2502
X3.3756Y-2.3502
X3.3756Y-2.4502
X3.3756Y-2.5502
X3.3756Y-2.6502
X3.3756Y-2.7502
X3.3756Y-2.8502
X3.3756Y-2.9502
X3.3756Y-3.0502
X3.3756Y-3.1502
X3.3756Y-3.2502
X3.3756Y-3.3502
X3.5876Y-1.4396
X3.5876Y-1.7396
X3.6876Y-1.4396
X3.6876Y-1.7396
X3.7876Y-1.4396
X3.7876Y-1.7396
X3.8876Y-1.4396
X3.8876Y-1.7396
X3.9876Y-1.4396
X3.9876Y-1.7396
X4.0876Y-1.4396
X4.0876Y-1.7396
X4.1876Y-1.4396
X4.1876Y-1.7396
X4.3799Y-1.4173
X4.3799Y-1.7126
X4.5472Y-2.1063
X4.5472Y-2.4016
T5
X3.0797Y-4.5472
X3.1797Y-4.5472
X4.4683Y-2.6423
X4.4783Y-2.9823
X4.4783Y-3.3123
X4.4783Y-3.6423
X4.4883Y-3.9723
X4.5683Y-2.6423
X4.5783Y-2.9823
X4.5783Y-3.3123
X4.5783Y-3.6423
X4.5883Y-3.9723
T6
X1.2461Y-5.0187
X1.3461Y-5.0187
X1.4461Y-5.0187
X1.5059Y-3.5226
X1.5059Y-3.6226
X1.5059Y-3.7226
X1.5461Y-5.0187
X1.6059Y-3.5226
X1.6059Y-3.6226
X1.6059Y-3.7226
X1.6461Y-5.0187
X1.7461Y-5.0187
X1.8461Y-5.0187
X1.9461Y-5.0187
X2.0461Y-5.0187
X2.1461Y-5.0187
X2.2461Y-5.0187
X2.3461Y-5.0187
X2.4461Y-5.0187
X2.5461Y-5.0187
X2.6461Y-5.0187
X2.7461Y-5.0187
X2.8461Y-5.0187
X2.9461Y-5.0187
X3.0461Y-5.0187
X3.1461Y-5.0187
X3.7185Y-4.8992
X3.773Y-4.7874
X3.8276Y-4.8992
X3.8821Y-4.7874
X3.8862Y-1.2805
X3.9366Y-4.8992
X3.9862Y-1.2805
X3.9911Y-4.7874
X4.0457Y-4.8992
X4.1002Y-4.7874
X4.1547Y-4.8992
X4.7933Y-3.5339
X4.7933Y-3.6339
X4.7933Y-3.7339
X4.7933Y-3.8339
X4.7933Y-3.9339
X4.7933Y-4.0339
X4.7933Y-4.3839
X4.7933Y-4.4839
X4.7933Y-4.5839
X4.7933Y-4.6839
X4.7943Y-1.5244
X4.7943Y-1.6244
X4.7943Y-1.7244
X4.7943Y-1.8244
X4.7943Y-1.9244
X4.7943Y-2.0244
X4.7943Y-2.1244
X4.7943Y-2.2244
X4.7943Y-2.6348
X4.7943Y-2.7348
X4.7943Y-2.8348
X4.7943Y-2.9348
X4.7943Y-3.0348
X4.7943Y-3.1348
T7
X1.0925Y-3.5531
X1.0925Y-3.7303
X1.0925Y-3.9665
X1.0925Y-4.1437
X1.2764Y-4.3504
X1.3484Y-3.5531
X1.3484Y-3.7303
X1.3484Y-3.9665
X1.3484Y-4.1437
X1.6764Y-4.3504
X2.7756Y-4.2488
X2.7756Y-4.6488
X2.9496Y-4.3209
X3.3496Y-4.3209
X3.4614Y-3.7303
X3.8614Y-3.7303
X4.2913Y-1.9161
X4.2913Y-2.3161
T0
M30
